<?xml version="1.0" standalone="no"?>
<!DOCTYPE svg PUBLIC "-//W3C//DTD SVG 20010904//EN"
 "http://www.w3.org/TR/2001/REC-SVG-20010904/DTD/svg10.dtd">
<svg version="1.0" xmlns="http://www.w3.org/2000/svg"
 width="16.000000pt" height="16.000000pt" viewBox="0 0 16.000000 16.000000"
 preserveAspectRatio="xMidYMid meet">

<g transform="translate(0.000000,16.000000) scale(0.100000,-0.100000)"
fill="#000000" stroke="none">
<path d="M4 147 c-3 -8 -4 -43 -2 -78 l3 -64 75 0 75 0 0 75 0 75 -73 3 c-55
2 -74 -1 -78 -11z m106 -32 c0 -9 -9 -15 -22 -16 -13 0 -17 -3 -10 -6 10 -4 8
-8 -5 -18 -15 -11 -16 -16 -5 -27 10 -10 16 -10 33 1 18 10 20 10 17 -1 -6
-16 -57 -23 -71 -9 -5 5 -6 18 -2 28 4 10 7 27 6 38 -1 16 5 21 29 23 21 2 30
-2 30 -13z"/>
</g>
</svg>
